<svg id="Layer_1" data-name="Layer 1" xmlns="http://www.w3.org/2000/svg" width="2.69in" height="0.73in" viewBox="0 0 193.89 52.46"><polygon points="1.11 13.06 8.77 26.37 17.53 13.06 1.11 13.06" fill="#09a3d6"/><polygon points="25.2 26.38 16.43 39.68 32.86 39.68 25.2 26.38" fill="#09a3d6"/><polygon points="25.2 26.38 33.93 13.11 26.14 0 17.53 13.06 17.54 13.06 25.2 26.38" fill="#8dc441"/><polygon points="8.77 26.37 0 39.68 8.03 52.46 16.43 39.68 16.43 39.68 8.77 26.37" fill="#8dc441"/><polygon points="17.54 13.06 17.53 13.06 8.77 26.37 16.43 39.68 16.43 39.68 25.2 26.38 17.54 13.06" fill="#0e8140"/><path d="M71.38,44.13v2.71H61.5V30.17h9.61v2.7h-6.4v3.88h5.7v2.7h-5.7v4.68Z" transform="translate(-17.7 -12.17)" fill="#2b292d"/><path d="M76,46.84l5.18-8.36L76,30.17h3.73L83,35.51l3.3-5.34H89.9l-5.08,8.21,5.34,8.46h-3.7L83,41.28l-3.37,5.56Z" transform="translate(-17.7 -12.17)" fill="#2b292d"/><path d="M108.57,44.6a9.24,9.24,0,0,1-1,.92,7.77,7.77,0,0,1-1.37.83,8.2,8.2,0,0,1-1.83.59,11.49,11.49,0,0,1-2.42.23,8.9,8.9,0,0,1-3.44-.67,8.57,8.57,0,0,1-2.77-1.83,8.46,8.46,0,0,1-1.84-2.75,9,9,0,0,1-.66-3.47A8.39,8.39,0,0,1,94,34.89a8.44,8.44,0,0,1,4.79-4.45,9.54,9.54,0,0,1,5.57-.35,11.55,11.55,0,0,1,1.81.63,8.63,8.63,0,0,1,1.39.81c.4.29.73.56,1,.8l-2,2.32c-.17-.17-.4-.37-.67-.59a6.92,6.92,0,0,0-1-.64,5.53,5.53,0,0,0-1.26-.51,5.25,5.25,0,0,0-1.53-.2,5.19,5.19,0,0,0-2.16.45,5.24,5.24,0,0,0-1.73,1.23,5.57,5.57,0,0,0-1.15,1.83,5.75,5.75,0,0,0-.42,2.23,6.27,6.27,0,0,0,.39,2.21,5.48,5.48,0,0,0,1.12,1.84,5.43,5.43,0,0,0,4.07,1.75,5.65,5.65,0,0,0,1.37-.16,6.72,6.72,0,0,0,1.22-.41,9,9,0,0,0,1-.57,6.06,6.06,0,0,0,.8-.64Z" transform="translate(-17.7 -12.17)" fill="#2b292d"/><path d="M123.5,46.84H114V30.17h3.19v14h6.32Z" transform="translate(-17.7 -12.17)" fill="#2b292d"/><path d="M128.25,30.17h3.21V40.83a3.78,3.78,0,0,0,.25,1.4,3.45,3.45,0,0,0,.68,1.11,2.9,2.9,0,0,0,1,.74,3.15,3.15,0,0,0,1.28.26,3.11,3.11,0,0,0,1.25-.26,2.92,2.92,0,0,0,1-.74,3.33,3.33,0,0,0,.7-1.11,4,4,0,0,0,.24-1.4V30.17h3.24V41a6.83,6.83,0,0,1-.41,2.35,5.58,5.58,0,0,1-1.22,2,6,6,0,0,1-2,1.37,7.26,7.26,0,0,1-2.83.51,7,7,0,0,1-2.8-.51,6,6,0,0,1-2-1.37,5.53,5.53,0,0,1-1.2-2,7.07,7.07,0,0,1-.39-2.35Z" transform="translate(-17.7 -12.17)" fill="#2b292d"/><path d="M155.82,33.58a11.12,11.12,0,0,0-1.59-.6,5.84,5.84,0,0,0-1.73-.25,2.65,2.65,0,0,0-1.72.5,1.48,1.48,0,0,0-.61,1.19,1.67,1.67,0,0,0,.77,1.4,17.08,17.08,0,0,0,2,1.16,15.63,15.63,0,0,1,2.29,1.43,7.23,7.23,0,0,1,1.39,1.37,4.16,4.16,0,0,1,.68,1.39,5.84,5.84,0,0,1,.15,1.46,4.4,4.4,0,0,1-.47,2A4.1,4.1,0,0,1,155.79,46a5.24,5.24,0,0,1-1.76.85,8.12,8.12,0,0,1-2.22.29,10.8,10.8,0,0,1-3.23-.49,7.13,7.13,0,0,1-2.09-1l1.24-2.56c.2.12.45.25.73.39l.92.39a6.32,6.32,0,0,0,1,.31,5.35,5.35,0,0,0,1.13.12,3.27,3.27,0,0,0,2-.51,1.53,1.53,0,0,0,.65-1.23,1.6,1.6,0,0,0-.26-.89,2.86,2.86,0,0,0-.72-.76,8.92,8.92,0,0,0-1-.67l-1.26-.74c-.63-.38-1.2-.75-1.7-1.11A7.09,7.09,0,0,1,148,37.23a4.6,4.6,0,0,1-.78-1.35,4.93,4.93,0,0,1-.26-1.63,4.07,4.07,0,0,1,.32-1.52,4.24,4.24,0,0,1,1-1.43,5.25,5.25,0,0,1,1.65-1.05,5.93,5.93,0,0,1,2.34-.42,11,11,0,0,1,2.65.35,9.85,9.85,0,0,1,1,.33c.31.12.57.22.77.32Z" transform="translate(-17.7 -12.17)" fill="#2b292d"/><path d="M163.23,30.17h3.21V46.84h-3.21Z" transform="translate(-17.7 -12.17)" fill="#2b292d"/><path d="M187.12,30.17,179.48,47h-.58l-7.54-16.83H175l4.27,9.92,4.42-9.92Z" transform="translate(-17.7 -12.17)" fill="#2b292d"/><path d="M207.57,45.08a2,2,0,0,1,2.79-1.83,2.21,2.21,0,0,1,.64.44,2,2,0,0,1,.43.63,1.91,1.91,0,0,1,.16.76,1.86,1.86,0,0,1-.6,1.43,2,2,0,0,1-1.43.56,2,2,0,0,1-1.41-.56A1.88,1.88,0,0,1,207.57,45.08Z" transform="translate(-17.7 -12.17)" fill="#2b292d"/><path d="M208.83,30.37l-.18-.08a.78.78,0,0,0-.22,0,.37.37,0,0,0-.26.09.27.27,0,0,0-.09.21.35.35,0,0,0,0,.14l.09.11.13.09.15.09a1.1,1.1,0,0,1,.38.3.49.49,0,0,1,.12.36.78.78,0,0,1,0,.22.7.7,0,0,1-.13.16.66.66,0,0,1-.19.09.8.8,0,0,1-.23,0,.82.82,0,0,1-.35-.06.66.66,0,0,1-.22-.12l.09-.17a1.2,1.2,0,0,0,.2.11.68.68,0,0,0,.27.05.38.38,0,0,0,.16,0,.27.27,0,0,0,.13-.07.39.39,0,0,0,.08-.1.36.36,0,0,0,0-.11.32.32,0,0,0,0-.14.38.38,0,0,0-.09-.13.5.5,0,0,0-.13-.11l-.17-.11a1.17,1.17,0,0,1-.2-.12,1,1,0,0,1-.15-.14.44.44,0,0,1-.1-.15.41.41,0,0,1,0-.19.35.35,0,0,1,0-.17.39.39,0,0,1,.1-.16.56.56,0,0,1,.17-.11.62.62,0,0,1,.25-.05.9.9,0,0,1,.28,0l.21.09Z" transform="translate(-17.7 -12.17)" fill="#2b292d"/><path d="M209.65,32.11v-2l0,0,.78.83.77-.83,0,0v2h-.21V30.56l-.59.63h0l-.58-.63v1.55Z" transform="translate(-17.7 -12.17)" fill="#2b292d"/><path d="M201.73,44.13v2.71h-9.88V30.17h9.62v2.7h-6.42v3.88h5.71v2.7h-5.71v4.68Z" transform="translate(-17.7 -12.17)" fill="#2b292d"/><path d="M31.34,26.93" transform="translate(-17.7 -12.17)" fill="#2b292d"/><path d="M63.73,57.61a1.9,1.9,0,0,1-1.41-.5,1.87,1.87,0,0,1-.51-1.41,2.07,2.07,0,0,1,.47-1.46,1.92,1.92,0,0,1,2.54-.06,1.73,1.73,0,0,1,.44,1.25v.5H62.84a1,1,0,0,0,.26.68.92.92,0,0,0,.68.24,2.67,2.67,0,0,0,.64-.07,3.66,3.66,0,0,0,.63-.22v.79a2.75,2.75,0,0,1-.57.2A4.06,4.06,0,0,1,63.73,57.61Zm-.14-3.15a.63.63,0,0,0-.51.2.88.88,0,0,0-.21.59H64.3a.83.83,0,0,0-.2-.59A.64.64,0,0,0,63.59,54.46Z" transform="translate(-17.7 -12.17)" fill="#09a3d6"/><path d="M66.93,55.63,65.72,53.8h1.16L67.61,55l.73-1.19H69.5l-1.22,1.83,1.28,1.92H68.39l-.78-1.29-.79,1.29H65.66Z" transform="translate(-17.7 -12.17)" fill="#09a3d6"/><path d="M71.72,57.61C70.55,57.61,70,57,70,55.69a2.1,2.1,0,0,1,.47-1.46,1.83,1.83,0,0,1,1.37-.5A2.57,2.57,0,0,1,73,54l-.3.79-.45-.16a1.4,1.4,0,0,0-.41-.06c-.53,0-.8.38-.8,1.14s.27,1.09.8,1.09a1.86,1.86,0,0,0,.54-.07,2.4,2.4,0,0,0,.51-.25v.87a1.66,1.66,0,0,1-.5.22A2.9,2.9,0,0,1,71.72,57.61Z" transform="translate(-17.7 -12.17)" fill="#09a3d6"/><path d="M74.82,57.55h-1V52.33h1Z" transform="translate(-17.7 -12.17)" fill="#09a3d6"/><path d="M78.61,57.55l-.14-.48h0a1,1,0,0,1-.47.4,1.65,1.65,0,0,1-.68.14,1.35,1.35,0,0,1-1-.35,1.46,1.46,0,0,1-.33-1V53.8h1V56a1.12,1.12,0,0,0,.14.61.54.54,0,0,0,.46.2.68.68,0,0,0,.62-.29,1.76,1.76,0,0,0,.19-.95V53.8h1v3.75Z" transform="translate(-17.7 -12.17)" fill="#09a3d6"/><path d="M83.15,56.43a1,1,0,0,1-.4.88,2,2,0,0,1-1.2.3,4.44,4.44,0,0,1-.69,0,2.14,2.14,0,0,1-.54-.17v-.84a3.42,3.42,0,0,0,.64.22,2.64,2.64,0,0,0,.63.09c.37,0,.55-.1.55-.32a.25.25,0,0,0-.07-.19,1.05,1.05,0,0,0-.26-.17c-.12-.07-.28-.14-.48-.23a2.92,2.92,0,0,1-.63-.33.9.9,0,0,1-.3-.35,1.24,1.24,0,0,1-.09-.5A.88.88,0,0,1,80.7,54a1.87,1.87,0,0,1,1.09-.27,3.21,3.21,0,0,1,1.32.29l-.31.74a5,5,0,0,0-.52-.2,1.73,1.73,0,0,0-.5-.07c-.3,0-.46.08-.46.24a.3.3,0,0,0,.15.24,6.18,6.18,0,0,0,.64.3,3,3,0,0,1,.64.33.9.9,0,0,1,.3.35A1.06,1.06,0,0,1,83.15,56.43Z" transform="translate(-17.7 -12.17)" fill="#09a3d6"/><path d="M84,52.83c0-.33.19-.5.56-.5s.56.17.56.5a.5.5,0,0,1-.14.37.59.59,0,0,1-.42.13C84.16,53.33,84,53.16,84,52.83ZM85,57.55H84V53.8h1Z" transform="translate(-17.7 -12.17)" fill="#09a3d6"/><path d="M87.07,57.55,85.64,53.8h1.07l.73,2.13a3.86,3.86,0,0,1,.15.77h0a3.32,3.32,0,0,1,.15-.77l.72-2.13h1.07l-1.43,3.75Z" transform="translate(-17.7 -12.17)" fill="#09a3d6"/><path d="M91.85,57.61a1.75,1.75,0,0,1-1.92-1.91,2.07,2.07,0,0,1,.47-1.46,1.92,1.92,0,0,1,2.54-.06,1.73,1.73,0,0,1,.44,1.25v.5H91a1,1,0,0,0,.26.68.92.92,0,0,0,.68.24,2.67,2.67,0,0,0,.64-.07,3.66,3.66,0,0,0,.63-.22v.79a2.64,2.64,0,0,1-.58.2A3.88,3.88,0,0,1,91.85,57.61Zm-.14-3.15a.63.63,0,0,0-.51.2.93.93,0,0,0-.22.59h1.44a.87.87,0,0,0-.2-.59A.66.66,0,0,0,91.71,54.46Z" transform="translate(-17.7 -12.17)" fill="#09a3d6"/><path d="M95.8,57.61c-1.17,0-1.75-.64-1.75-1.92a2.06,2.06,0,0,1,.48-1.46,1.79,1.79,0,0,1,1.36-.5,2.64,2.64,0,0,1,1.17.25l-.31.79-.44-.16a1.52,1.52,0,0,0-.42-.06c-.53,0-.8.38-.8,1.14s.27,1.09.8,1.09a1.93,1.93,0,0,0,.55-.07,2.59,2.59,0,0,0,.5-.25v.87a1.56,1.56,0,0,1-.5.22A2.84,2.84,0,0,1,95.8,57.61Z" transform="translate(-17.7 -12.17)" fill="#09a3d6"/><path d="M101.28,55.67a2,2,0,0,1-.48,1.43,1.76,1.76,0,0,1-1.35.51,2,2,0,0,1-1-.23,1.66,1.66,0,0,1-.63-.68,2.26,2.26,0,0,1-.22-1,2,2,0,0,1,.48-1.43,1.76,1.76,0,0,1,1.34-.51,2,2,0,0,1,1,.23,1.6,1.6,0,0,1,.63.68A2.2,2.2,0,0,1,101.28,55.67Zm-2.59,0a1.59,1.59,0,0,0,.18.84.65.65,0,0,0,.6.28.64.64,0,0,0,.59-.28,1.6,1.6,0,0,0,.17-.84,1.57,1.57,0,0,0-.18-.84.63.63,0,0,0-.59-.28.64.64,0,0,0-.59.28A1.54,1.54,0,0,0,98.69,55.67Z" transform="translate(-17.7 -12.17)" fill="#09a3d6"/><path d="M105.65,57.55h-1V55.36a1.1,1.1,0,0,0-.14-.61.52.52,0,0,0-.46-.2.68.68,0,0,0-.62.28,1.76,1.76,0,0,0-.19,1v1.77h-1V53.8H103l.13.48h.06a1,1,0,0,1,.47-.41,1.51,1.51,0,0,1,.68-.14,1.31,1.31,0,0,1,1,.35,1.41,1.41,0,0,1,.34,1Z" transform="translate(-17.7 -12.17)" fill="#09a3d6"/><path d="M108.3,57.61c-1.17,0-1.75-.64-1.75-1.92a2.05,2.05,0,0,1,.47-1.46,1.81,1.81,0,0,1,1.37-.5,2.57,2.57,0,0,1,1.16.25l-.3.79-.45-.16a1.51,1.51,0,0,0-.41-.06c-.54,0-.8.38-.8,1.14s.26,1.09.8,1.09a1.9,1.9,0,0,0,.54-.07,2.4,2.4,0,0,0,.51-.25v.87a1.61,1.61,0,0,1-.51.22A2.74,2.74,0,0,1,108.3,57.61Z" transform="translate(-17.7 -12.17)" fill="#09a3d6"/><path d="M112.07,57.61a1.91,1.91,0,0,1-1.42-.5,1.87,1.87,0,0,1-.51-1.41,2.12,2.12,0,0,1,.47-1.46,1.7,1.7,0,0,1,1.31-.51,1.63,1.63,0,0,1,1.23.45,1.69,1.69,0,0,1,.45,1.25v.5h-2.42a1,1,0,0,0,.26.68.9.9,0,0,0,.67.24,2.62,2.62,0,0,0,.64-.07,3.15,3.15,0,0,0,.63-.22v.79a2.39,2.39,0,0,1-.57.2A3.88,3.88,0,0,1,112.07,57.61Zm-.15-3.15a.66.66,0,0,0-.51.2,1,1,0,0,0-.21.59h1.44a.87.87,0,0,0-.2-.59A.66.66,0,0,0,111.92,54.46Z" transform="translate(-17.7 -12.17)" fill="#09a3d6"/><path d="M116.55,57.61a1.23,1.23,0,0,1-1-.48h-.06c0,.32.06.5.06.55v1.51h-1V53.8h.83l.14.48h0a1.18,1.18,0,0,1,1.06-.55,1.22,1.22,0,0,1,1,.51,2.38,2.38,0,0,1,.38,1.43,2.8,2.8,0,0,1-.18,1,1.52,1.52,0,0,1-.5.67A1.25,1.25,0,0,1,116.55,57.61Zm-.3-3.06a.63.63,0,0,0-.55.23,1.26,1.26,0,0,0-.18.77v.11a1.55,1.55,0,0,0,.18.86.63.63,0,0,0,.57.26c.45,0,.68-.37.68-1.13a1.56,1.56,0,0,0-.17-.83A.58.58,0,0,0,116.25,54.55Z" transform="translate(-17.7 -12.17)" fill="#09a3d6"/><path d="M120.49,56.8a2.14,2.14,0,0,0,.64-.12v.76a2.2,2.2,0,0,1-.94.17,1.13,1.13,0,0,1-.89-.31,1.31,1.31,0,0,1-.28-.93v-1.8h-.49v-.44l.56-.34.3-.79H120v.8h1v.77h-1v1.8a.39.39,0,0,0,.12.32A.5.5,0,0,0,120.49,56.8Z" transform="translate(-17.7 -12.17)" fill="#09a3d6"/><path d="M124.57,56.43a1,1,0,0,1-.4.88,2,2,0,0,1-1.2.3,4.68,4.68,0,0,1-.7,0,2.19,2.19,0,0,1-.53-.17v-.84a3.19,3.19,0,0,0,.64.22,2.58,2.58,0,0,0,.63.09c.37,0,.55-.1.55-.32a.25.25,0,0,0-.07-.19,1.05,1.05,0,0,0-.26-.17c-.12-.07-.28-.14-.48-.23a2.92,2.92,0,0,1-.63-.33.9.9,0,0,1-.3-.35,1.24,1.24,0,0,1-.09-.5.88.88,0,0,1,.39-.77,1.87,1.87,0,0,1,1.09-.27,3.24,3.24,0,0,1,1.32.29l-.31.74c-.19-.08-.36-.15-.52-.2a1.73,1.73,0,0,0-.5-.07c-.31,0-.46.08-.46.24a.3.3,0,0,0,.15.24,6.18,6.18,0,0,0,.64.3,3,3,0,0,1,.64.33.9.9,0,0,1,.3.35A1.06,1.06,0,0,1,124.57,56.43Z" transform="translate(-17.7 -12.17)" fill="#09a3d6"/><path d="M125.29,57.07a.58.58,0,0,1,.15-.43.6.6,0,0,1,.44-.14.62.62,0,0,1,.43.14.54.54,0,0,1,.16.43.57.57,0,0,1-.16.41.54.54,0,0,1-.43.16.58.58,0,0,1-.43-.15A.54.54,0,0,1,125.29,57.07Z" transform="translate(-17.7 -12.17)" fill="#09a3d6"/><path d="M129,57.61c-1.16,0-1.75-.64-1.75-1.92a2.06,2.06,0,0,1,.48-1.46,1.8,1.8,0,0,1,1.36-.5,2.58,2.58,0,0,1,1.17.25l-.3.79-.45-.16a1.52,1.52,0,0,0-.42-.06c-.53,0-.79.38-.79,1.14s.26,1.09.79,1.09a1.93,1.93,0,0,0,.55-.07,2.13,2.13,0,0,0,.5-.25v.87a1.47,1.47,0,0,1-.5.22A2.84,2.84,0,0,1,129,57.61Z" transform="translate(-17.7 -12.17)" fill="#09a3d6"/><path d="M134.47,55.67A2,2,0,0,1,134,57.1a1.76,1.76,0,0,1-1.34.51,1.94,1.94,0,0,1-.95-.23,1.62,1.62,0,0,1-.64-.68,2.4,2.4,0,0,1-.22-1,2,2,0,0,1,.48-1.43,1.76,1.76,0,0,1,1.35-.51,1.94,1.94,0,0,1,1,.23,1.48,1.48,0,0,1,.63.68A2.21,2.21,0,0,1,134.47,55.67Zm-2.59,0a1.59,1.59,0,0,0,.18.84.76.76,0,0,0,1.18,0,1.59,1.59,0,0,0,.18-.84,1.57,1.57,0,0,0-.18-.84.64.64,0,0,0-.59-.28.63.63,0,0,0-.59.28A1.54,1.54,0,0,0,131.88,55.67Z" transform="translate(-17.7 -12.17)" fill="#09a3d6"/><path d="M138.73,57.55h-1V55.36a1.11,1.11,0,0,0-.13-.61.47.47,0,0,0-.43-.2.62.62,0,0,0-.57.28,1.9,1.9,0,0,0-.18,1v1.77h-1V53.8h.78l.14.48h0a1.16,1.16,0,0,1,.44-.41,1.51,1.51,0,0,1,.65-.14,1.17,1.17,0,0,1,1.14.55h.09a1,1,0,0,1,.45-.41,1.53,1.53,0,0,1,.66-.14,1.28,1.28,0,0,1,1,.33,1.4,1.4,0,0,1,.33,1v2.45h-1V55.36a1.11,1.11,0,0,0-.13-.61.46.46,0,0,0-.43-.2.65.65,0,0,0-.56.26,1.59,1.59,0,0,0-.19.86Z" transform="translate(-17.7 -12.17)" fill="#09a3d6"/></svg>